<?xml version="1.0" encoding="UTF-8" standalone="no"?>
<!-- Created with Inkscape (http://www.inkscape.org/) -->

<svg
   xmlns:dc="http://purl.org/dc/elements/1.1/"
   xmlns:cc="http://creativecommons.org/ns#"
   xmlns:rdf="http://www.w3.org/1999/02/22-rdf-syntax-ns#"
   xmlns:svg="http://www.w3.org/2000/svg"
   xmlns="http://www.w3.org/2000/svg"
   xmlns:sodipodi="http://sodipodi.sourceforge.net/DTD/sodipodi-0.dtd"
   xmlns:inkscape="http://www.inkscape.org/namespaces/inkscape"
   width="150pt"
   height="150pt"
   viewBox="0 0 187.50001 187.5"
   id="svg2"
   version="1.1"
   inkscape:version="0.91 r13725"
   sodipodi:docname="logo.svg">
  <defs
     id="defs4" />
  <sodipodi:namedview
     id="base"
     pagecolor="#ffffff"
     bordercolor="#666666"
     borderopacity="1.0"
     inkscape:pageopacity="0.0"
     inkscape:pageshadow="2"
     inkscape:zoom="0.566317"
     inkscape:cx="91.638087"
     inkscape:cy="77.852794"
     inkscape:document-units="px"
     inkscape:current-layer="text3420"
     showgrid="false"
     inkscape:window-width="1280"
     inkscape:window-height="737"
     inkscape:window-x="-4"
     inkscape:window-y="-4"
     inkscape:window-maximized="1"
     units="pt" />
  <metadata
     id="metadata7">
    <rdf:RDF>
      <cc:Work
         rdf:about="">
        <dc:format>image/svg+xml</dc:format>
        <dc:type
           rdf:resource="http://purl.org/dc/dcmitype/StillImage" />
        <dc:title></dc:title>
      </cc:Work>
    </rdf:RDF>
  </metadata>
  <g
     inkscape:label="Layer 1"
     inkscape:groupmode="layer"
     id="layer1"
     transform="translate(0,-864.86225)">
    <path
       style="fill:#008000"
       id="path3360"
       d="m 167.904,866.08506 c -1.07231,1.26717 -2.20975,2.38041 -3.40578,3.36156 -1.37055,1.00961 -2.75827,1.96053 -4.13393,2.95518 -1.96198,1.43863 -4.07556,2.23594 -6.20515,2.84346 -4.06141,1.05552 -8.15626,1.53133 -12.25905,1.42219 -2.31083,-0.0784 -10.41408,1.29895 -0.46154,-0.24315 -1.65426,0.42114 -3.293,0.9791 -4.91912,1.60476 -1.66349,0.70235 -3.31083,1.50083 -4.93561,2.38831 -1.41812,0.72936 -2.74795,1.76761 -3.98891,3.02608 -1.008,1.07054 -1.87685,2.39607 -2.72181,3.7378 -0.77059,1.24142 -1.32904,2.71231 -1.84259,4.20752 -0.41615,1.25665 -0.79941,2.53626 -1.18014,3.81708 -0.40957,1.19261 -0.52335,2.51831 -0.68146,3.81553 -0.10193,1.39577 -0.2671,2.78071 -0.35258,4.17865 -0.0845,1.48468 -0.35467,2.92318 -0.54002,4.38363 -0.0296,0.21417 -0.0592,0.42833 -0.0889,0.6425 0,0 -5.72382,0.66854 -5.72382,0.66854 l 0,0 c 0.0311,-0.20817 0.0621,-0.41633 0.0932,-0.6245 0.18716,-1.43217 0.465,-2.83839 0.55355,-4.29461 0.0759,-1.42739 0.24387,-2.83879 0.34429,-4.26297 0.17253,-1.35599 0.24567,-2.76533 0.66987,-4.01907 0.38949,-1.29265 0.76771,-2.59354 1.1902,-3.86356 0.53259,-1.55758 1.09458,-3.10487 1.85699,-4.44576 0.85177,-1.3911 1.73167,-2.75963 2.73054,-3.91714 1.23904,-1.35846 2.59472,-2.47242 4.0412,-3.24522 1.62082,-0.927 3.2715,-1.72052 4.93077,-2.47389 1.63135,-0.65657 3.27686,-1.22451 4.93512,-1.69785 3.83531,-0.66537 7.66535,-1.51835 11.5296,-1.48872 1.0962,0.0111 2.19182,0.016 3.28786,-0.0675 0.37451,-0.0285 1.49476,-0.18666 1.12264,-0.11328 -1.05201,0.20745 -6.75791,1.18831 -3.16357,0.51935 2.09899,-0.52183 4.19199,-1.25356 6.13146,-2.62117 1.37474,-0.95702 2.71325,-2.02795 4.11039,-2.91621 1.17271,-0.90527 2.2987,-1.91712 3.3152,-3.18953 0,0 5.76107,-0.088 5.76107,-0.088 z"
       inkscape:connector-curvature="0" />
    <path
       style="fill:#008000"
       id="path3362"
       d="m 169.43391,866.51528 c -1.02746,1.02887 -1.96669,2.24164 -2.92221,3.41295 -0.8011,0.99061 -1.57918,2.0272 -2.31253,3.12971 -0.76812,1.2366 -1.40982,2.60771 -1.98117,4.05712 -0.63742,1.7097 -1.18521,3.48791 -1.72439,5.26901 -0.43435,1.64895 -1.05297,3.16033 -1.6484,4.68695 -0.59671,1.72298 -1.29642,3.35727 -1.94761,5.03427 -0.88782,2.00652 -1.80476,3.98302 -2.69062,5.9936 -0.7779,1.72807 -1.56824,3.45777 -2.48101,5.03523 -0.78905,1.28465 -1.58455,2.55334 -2.5054,3.62718 -1.01492,1.1337 -2.08858,2.11514 -3.249,2.86627 -1.14144,0.81159 -2.3547,1.31115 -3.57649,1.74961 -1.06109,0.38978 -2.13895,0.60395 -3.21997,0.80402 -3.27317,0.60829 -6.56882,1.26044 -9.85808,0.82952 -0.97441,-0.0328 -1.94662,0.0755 -2.92023,2.8e-4 -0.89004,-0.12499 -1.78044,-0.22223 -2.67083,-0.3448 -0.79181,-0.25476 -1.59052,-0.43774 -2.38276,-0.69175 -0.72646,-0.0528 -1.45479,-0.0803 -2.17718,-0.22195 -0.73746,-0.34031 -1.49864,-0.38116 -2.26296,-0.46318 -0.80286,-0.11209 -1.56105,-0.51523 -2.30481,-0.9486 -0.47779,-0.29428 -0.25464,-0.11229 -0.67104,-0.54168 0,0 5.64938,-1.73452 5.64938,-1.73452 l 0,0 c 0.39919,0.27629 0.18582,0.1411 0.64214,0.39841 0.73391,0.37604 1.48388,0.67431 2.2665,0.71752 0.76828,0.0831 1.51417,0.32288 2.27473,0.48078 0.72929,0.0683 1.46193,0.13212 2.18279,0.30571 0.78663,0.21091 1.5651,0.49676 2.36301,0.60235 0.88435,0.10212 1.76584,0.25428 2.65337,0.30176 0.96327,0.006 1.92811,-0.0626 2.88924,0.0506 2.36772,0.20464 8.68439,-0.43256 -1.3677,0.8576 1.07724,-0.18724 2.15638,-0.34577 3.21395,-0.72811 1.22331,-0.3355 2.45245,-0.80847 3.58571,-1.59535 1.15955,-0.66522 2.22688,-1.53359 3.23121,-2.641 0.92767,-1.02423 1.74428,-2.18342 2.51467,-3.46997 0.95829,-1.48953 1.73114,-3.22702 2.52973,-4.90697 0.88826,-1.97694 1.74011,-3.98993 2.66107,-5.93283 0.63287,-1.68829 1.35199,-3.29915 1.92416,-5.03641 0.57808,-1.51766 1.23304,-2.97343 1.66096,-4.60658 0.55421,-1.79767 1.09916,-3.60447 1.73048,-5.34649 0.55914,-1.51728 1.17975,-2.95448 1.93881,-4.26845 0.72305,-1.16426 1.53524,-2.19794 2.33383,-3.24325 0.97382,-1.13793 1.92484,-2.32325 2.87288,-3.50788 0,0 5.75577,0.0191 5.75577,0.0191 z"
       inkscape:connector-curvature="0" />
    <path
       style="fill:#00ff00"
       d="m 120.40026,908.07975 c 0.008,-0.057 0.14246,-1.33836 0.2995,-2.84755 0.81172,-7.8004 1.06599,-9.57275 1.65008,-11.50151 1.86852,-6.17014 4.50859,-10.02227 8.62982,-12.59181 4.72936,-2.9487 8.034,-4.03109 13.24818,-4.33926 5.20567,-0.30766 9.13463,-0.96499 11.68967,-1.95573 l 1.68149,-0.65201 -1.38849,4.14215 c -3.7666,11.23663 -7.89758,21.07341 -10.64946,25.35878 -3.25178,5.06384 -6.6459,7.13127 -11.54206,7.03054 -1.72171,-0.0354 -4.40284,-0.32108 -5.95808,-0.63481 -1.55523,-0.31372 -3.721,-0.74013 -4.81281,-0.94757 -1.76087,-0.33456 -2.88911,-0.75499 -2.84784,-1.06122 z"
       id="path3378"
       inkscape:connector-curvature="0" />
    <g
       transform="matrix(0.95615365,0,0,1.045857,92.464052,-18.086409)"
       style="font-style:normal;font-weight:normal;font-size:593.60876465px;line-height:125%;font-family:sans-serif;letter-spacing:0px;word-spacing:0px;fill:#552200;fill-opacity:1;stroke:none;stroke-width:1px;stroke-linecap:butt;stroke-linejoin:miter;stroke-opacity:1"
       id="text3420">
      <text
         xml:space="preserve"
         style="font-style:normal;font-variant:normal;font-weight:normal;font-stretch:normal;font-size:188.17680359px;line-height:125%;font-family:'Bauhaus 93';-inkscape-font-specification:'Bauhaus 93, Normal';text-align:start;letter-spacing:0px;word-spacing:0px;writing-mode:lr-tb;text-anchor:start;fill:#552200;fill-opacity:1;stroke:none;stroke-width:1px;stroke-linecap:butt;stroke-linejoin:miter;stroke-opacity:1"
         x="-44.669819"
         y="960.64307"
         id="text4231"
         sodipodi:linespacing="125%"
         transform="scale(0.94106168,1.0626296)"><tspan
           sodipodi:role="line"
           id="tspan4233"
           x="-44.669819"
           y="960.64307">S</tspan></text>
      <flowRoot
         xml:space="preserve"
         id="flowRoot4235"
         style="font-style:normal;font-weight:normal;font-size:40px;line-height:125%;font-family:sans-serif;letter-spacing:0px;word-spacing:0px;fill:#000000;fill-opacity:1;stroke:none;stroke-width:1px;stroke-linecap:butt;stroke-linejoin:miter;stroke-opacity:1"
         transform="matrix(1.045857,0,0,0.95615366,-96.704177,345.92416)"><flowRegion
           id="flowRegion4237"><rect
             id="rect4239"
             width="158.9216"
             height="162.45319"
             x="197.76909"
             y="383.75507" /></flowRegion><flowPara
           id="flowPara4241" /></flowRoot>      <flowRoot
         xml:space="preserve"
         id="flowRoot4243"
         style="font-style:normal;font-weight:normal;font-size:40px;line-height:125%;font-family:sans-serif;letter-spacing:0px;word-spacing:0px;fill:#000000;fill-opacity:1;stroke:none;stroke-width:1px;stroke-linecap:butt;stroke-linejoin:miter;stroke-opacity:1"
         transform="matrix(1.045857,0,0,0.95615366,-96.704177,345.92416)"><flowRegion
           id="flowRegion4245"><rect
             id="rect4247"
             width="56.505455"
             height="204.83228"
             x="356.69067"
             y="387.28665" /></flowRegion><flowPara
           id="flowPara4249" /></flowRoot>    </g>
  </g>
</svg>
